<?xml version="1.0" standalone="no"?>
<!DOCTYPE svg PUBLIC "-//W3C//DTD SVG 20010904//EN"
 "http://www.w3.org/TR/2001/REC-SVG-20010904/DTD/svg10.dtd">
<svg version="1.0" xmlns="http://www.w3.org/2000/svg"
 width="512.000000pt" height="512.000000pt" viewBox="0 0 512.000000 512.000000"
 preserveAspectRatio="xMidYMid meet">
<metadata>
Created by potrace 1.14, written by Peter Selinger 2001-2017
</metadata>
<g transform="translate(0.000000,512.000000) scale(0.100000,-0.100000)"
fill="#000000" stroke="none">
<path d="M2398 4340 c-87 -16 -163 -42 -248 -86 -198 -102 -337 -265 -411
-484 -32 -92 -33 -102 -38 -300 l-6 -205 -24 -3 c-36 -6 -106 -82 -125 -137
-26 -76 -30 -169 -12 -254 33 -155 119 -279 208 -301 43 -11 44 -12 55 -68 34
-176 157 -362 307 -463 l65 -44 1 -62 0 -63 -60 0 c-72 0 -69 7 -73 -173 l-2
-128 -60 -20 c-104 -34 -356 -165 -448 -234 -163 -121 -312 -279 -415 -439
-33 -53 -42 -74 -35 -85 9 -14 163 -16 1483 -16 1335 0 1474 1 1483 16 8 12
-3 35 -47 102 -195 292 -483 517 -828 646 l-103 39 -5 143 -5 144 -57 3 -58 3
0 68 0 68 56 38 c142 98 265 287 298 457 9 48 14 58 31 58 68 1 157 80 206
183 40 84 52 156 46 262 -7 134 -51 217 -132 251 l-35 14 0 149 c0 179 -18
295 -64 408 -47 113 -112 208 -205 295 -112 105 -214 162 -367 204 -68 18
-303 28 -376 14z m440 -555 c142 -34 236 -107 293 -229 48 -103 62 -190 54
-341 -4 -71 -8 -148 -8 -170 l-2 -40 65 0 65 0 3 80 c3 93 19 115 82 115 31 0
44 -7 68 -34 43 -49 57 -99 57 -196 -1 -191 -95 -340 -216 -340 -48 0 -48 0
-54 -37 -40 -253 -167 -438 -375 -547 -276 -145 -599 -95 -819 125 -102 101
-172 234 -195 369 -6 36 -15 71 -19 78 -5 6 -26 12 -48 12 -99 0 -199 174
-199 345 0 126 55 225 123 225 52 0 61 -12 77 -107 l15 -88 63 -3 c83 -4 94 5
86 72 -9 73 12 212 48 325 16 53 33 99 37 104 4 4 22 -8 39 -28 18 -19 39 -35
47 -35 8 0 28 29 44 64 37 76 58 97 67 70 34 -98 84 -167 117 -162 18 3 23 15
34 83 34 201 141 303 318 304 39 1 98 -6 133 -14z m32 -1865 l0 -50 -315 0
-315 0 0 44 0 44 78 -25 c148 -49 375 -41 506 17 22 10 42 19 44 19 1 1 2 -21
2 -49z m513 -574 c126 -72 235 -155 337 -256 81 -81 165 -179 194 -227 6 -10
-182 -13 -926 -12 l-933 0 105 24 c392 90 799 269 1065 469 33 24 65 45 70 45
6 1 45 -19 88 -43z"/>
<path d="M2064 3195 c-4 -8 -4 -22 0 -30 4 -13 33 -15 175 -15 147 0 170 2
175 16 15 38 -9 44 -181 44 -136 0 -165 -3 -169 -15z"/>
<path d="M2694 3195 c-4 -8 -4 -22 0 -30 5 -13 31 -15 178 -13 l173 3 0 25 0
25 -173 3 c-147 2 -173 0 -178 -13z"/>
<path d="M2210 3097 c-13 -7 -31 -24 -39 -38 -30 -53 36 -117 94 -91 55 25 58
100 5 127 -35 18 -29 18 -60 2z"/>
<path d="M2850 3103 c-51 -19 -68 -85 -30 -123 61 -61 159 32 103 98 -20 23
-50 33 -73 25z"/>
<path d="M2595 3068 c-3 -8 -4 -95 -3 -193 l3 -180 25 0 25 0 0 190 c0 190 0
190 -23 193 -12 2 -24 -3 -27 -10z"/>
<path d="M1690 3005 c-27 -33 25 -167 68 -173 33 -5 38 24 13 74 -11 25 -21
55 -21 67 0 41 -36 61 -60 32z"/>
<path d="M3357 3013 c-3 -5 -8 -24 -12 -43 -4 -19 -16 -52 -27 -73 -22 -43
-11 -70 25 -65 37 6 86 135 65 172 -9 16 -43 22 -51 9z"/>
<path d="M2315 2496 c-56 -40 45 -85 210 -93 106 -5 217 13 262 43 27 17 28
27 8 47 -13 13 -23 13 -87 -5 -87 -23 -266 -21 -335 5 -33 12 -45 13 -58 3z"/>
</g>
</svg>
